<svg xmlns="http://www.w3.org/2000/svg" class="bfield" viewBox="0 0 851.0651245117188 214.66476440429688"><g style="transform:translate(-48.93487548828125px, -70px);"><style>
.bfield-rect {
stroke: #000000;
stroke-width: 2;
}

.bfield-shaded {
fill: #bed0e0;
}

.bfield-unshaded {
fill: none;
}

.bfield-text {
font-family: sans-serif;
font-size: 14px;
text-anchor: middle;
dominant-baseline: middle;
}

.bfield-text-angled {
text-anchor: end;
}

.bfield-line {
stroke:#000000;
stroke-width:1;
}

.bfield-line-dotted {
stroke-dasharray: 2;
}

</style><g><rect x="100" y="100" width="75" height="50" class="bfield-rect bfield-unshaded"></rect><g><line x1="125" y1="100" x2="125" y2="110" class="bfield-line-dotted bfield-line"></line><line x1="125" y1="150" x2="125" y2="140" class="bfield-line-dotted bfield-line"></line><line x1="150" y1="100" x2="150" y2="110" class="bfield-line-dotted bfield-line"></line><line x1="150" y1="150" x2="150" y2="140" class="bfield-line-dotted bfield-line"></line></g><text class="bfield-text" x="137.5" y="166">W</text><text class="bfield-text" x="112.5" y="92">31</text><text class="bfield-text" x="162.5" y="92">29</text><text class="bfield-text-angled bfield-text" x="137.5" y="198" transform="rotate(-45 137.5 198)">TESTLONGNAME</text><line x1="137.5" y1="174" x2="137.5" y2="190" class="bfield-line"></line></g><g><rect x="175" y="100" width="100" height="50" class="bfield-rect bfield-unshaded"></rect><g><line x1="200" y1="100" x2="200" y2="110" class="bfield-line-dotted bfield-line"></line><line x1="200" y1="150" x2="200" y2="140" class="bfield-line-dotted bfield-line"></line><line x1="225" y1="100" x2="225" y2="110" class="bfield-line-dotted bfield-line"></line><line x1="225" y1="150" x2="225" y2="140" class="bfield-line-dotted bfield-line"></line><line x1="250" y1="100" x2="250" y2="110" class="bfield-line-dotted bfield-line"></line><line x1="250" y1="150" x2="250" y2="140" class="bfield-line-dotted bfield-line"></line></g><text class="bfield-text" x="225" y="166">W</text><text class="bfield-text" x="187.5" y="92">28</text><text class="bfield-text" x="262.5" y="92">25</text><text class="bfield-text" x="225" y="125">ERROR</text></g><g><rect x="275" y="100" width="25" height="50" class="bfield-rect bfield-shaded"></rect><g></g><text class="bfield-text" x="287.5" y="92">24</text><text class="bfield-text-angled bfield-text" x="287.5" y="198" transform="rotate(-45 287.5 198)">Reserved</text><line x1="287.5" y1="158" x2="287.5" y2="190" class="bfield-line"></line></g><g><rect x="300" y="100" width="200" height="50" class="bfield-rect bfield-unshaded"></rect><g><line x1="325" y1="100" x2="325" y2="110" class="bfield-line-dotted bfield-line"></line><line x1="325" y1="150" x2="325" y2="140" class="bfield-line-dotted bfield-line"></line><line x1="350" y1="100" x2="350" y2="110" class="bfield-line-dotted bfield-line"></line><line x1="350" y1="150" x2="350" y2="140" class="bfield-line-dotted bfield-line"></line><line x1="375" y1="100" x2="375" y2="110" class="bfield-line-dotted bfield-line"></line><line x1="375" y1="150" x2="375" y2="140" class="bfield-line-dotted bfield-line"></line><line x1="400" y1="100" x2="400" y2="110" class="bfield-line-dotted bfield-line"></line><line x1="400" y1="150" x2="400" y2="140" class="bfield-line-dotted bfield-line"></line><line x1="425" y1="100" x2="425" y2="110" class="bfield-line-dotted bfield-line"></line><line x1="425" y1="150" x2="425" y2="140" class="bfield-line-dotted bfield-line"></line><line x1="450" y1="100" x2="450" y2="110" class="bfield-line-dotted bfield-line"></line><line x1="450" y1="150" x2="450" y2="140" class="bfield-line-dotted bfield-line"></line><line x1="475" y1="100" x2="475" y2="110" class="bfield-line-dotted bfield-line"></line><line x1="475" y1="150" x2="475" y2="140" class="bfield-line-dotted bfield-line"></line></g><text class="bfield-text" x="400" y="166">W</text><text class="bfield-text" x="312.5" y="92">23</text><text class="bfield-text" x="487.5" y="92">16</text><text class="bfield-text" x="400" y="125">COUNT</text></g><g><rect x="500" y="100" width="200" height="50" class="bfield-rect bfield-unshaded"></rect><g><line x1="525" y1="100" x2="525" y2="110" class="bfield-line-dotted bfield-line"></line><line x1="525" y1="150" x2="525" y2="140" class="bfield-line-dotted bfield-line"></line><line x1="550" y1="100" x2="550" y2="110" class="bfield-line-dotted bfield-line"></line><line x1="550" y1="150" x2="550" y2="140" class="bfield-line-dotted bfield-line"></line><line x1="575" y1="100" x2="575" y2="110" class="bfield-line-dotted bfield-line"></line><line x1="575" y1="150" x2="575" y2="140" class="bfield-line-dotted bfield-line"></line><line x1="600" y1="100" x2="600" y2="110" class="bfield-line-dotted bfield-line"></line><line x1="600" y1="150" x2="600" y2="140" class="bfield-line-dotted bfield-line"></line><line x1="625" y1="100" x2="625" y2="110" class="bfield-line-dotted bfield-line"></line><line x1="625" y1="150" x2="625" y2="140" class="bfield-line-dotted bfield-line"></line><line x1="650" y1="100" x2="650" y2="110" class="bfield-line-dotted bfield-line"></line><line x1="650" y1="150" x2="650" y2="140" class="bfield-line-dotted bfield-line"></line><line x1="675" y1="100" x2="675" y2="110" class="bfield-line-dotted bfield-line"></line><line x1="675" y1="150" x2="675" y2="140" class="bfield-line-dotted bfield-line"></line></g><text class="bfield-text" x="600" y="166">W</text><text class="bfield-text" x="512.5" y="92">15</text><text class="bfield-text" x="687.5" y="92">8</text><text class="bfield-text" x="600" y="125">RETPATH</text></g><g><rect x="700" y="100" width="125" height="50" class="bfield-rect bfield-shaded"></rect><g><line x1="725" y1="100" x2="725" y2="110" class="bfield-line-dotted bfield-line"></line><line x1="725" y1="150" x2="725" y2="140" class="bfield-line-dotted bfield-line"></line><line x1="750" y1="100" x2="750" y2="110" class="bfield-line-dotted bfield-line"></line><line x1="750" y1="150" x2="750" y2="140" class="bfield-line-dotted bfield-line"></line><line x1="775" y1="100" x2="775" y2="110" class="bfield-line-dotted bfield-line"></line><line x1="775" y1="150" x2="775" y2="140" class="bfield-line-dotted bfield-line"></line><line x1="800" y1="100" x2="800" y2="110" class="bfield-line-dotted bfield-line"></line><line x1="800" y1="150" x2="800" y2="140" class="bfield-line-dotted bfield-line"></line></g><text class="bfield-text" x="712.5" y="92">7</text><text class="bfield-text" x="812.5" y="92">3</text><text class="bfield-text" x="762.5" y="125">Reserved</text></g><g><rect x="825" y="100" width="50" height="50" class="bfield-rect bfield-unshaded"></rect><g><line x1="850" y1="100" x2="850" y2="110" class="bfield-line-dotted bfield-line"></line><line x1="850" y1="150" x2="850" y2="140" class="bfield-line-dotted bfield-line"></line></g><text class="bfield-text" x="850" y="166">RW</text><text class="bfield-text" x="837.5" y="92">2</text><text class="bfield-text" x="862.5" y="92">1</text><text class="bfield-text" x="850" y="125">CLK</text></g><g><rect x="875" y="100" width="25" height="50" class="bfield-rect bfield-unshaded"></rect><g></g><text class="bfield-text" x="887.5" y="166">R</text><text class="bfield-text" x="887.5" y="92">0</text><text class="bfield-text-angled bfield-text" x="887.5" y="198" transform="rotate(-45 887.5 198)">SYSACT</text><line x1="887.5" y1="174" x2="887.5" y2="190" class="bfield-line"></line></g><g><line x1="100" y1="100" x2="100" y2="70" class="bfield-line-dotted bfield-line"></line><line x1="300" y1="100" x2="300" y2="70" class="bfield-line-dotted bfield-line"></line><line x1="500" y1="100" x2="500" y2="70" class="bfield-line-dotted bfield-line"></line><line x1="700" y1="100" x2="700" y2="70" class="bfield-line-dotted bfield-line"></line><line x1="900" y1="100" x2="900" y2="70" class="bfield-line-dotted bfield-line"></line></g></g></svg>